<svg width="129" height="129" viewBox="0 0 129 129" fill="none" xmlns="http://www.w3.org/2000/svg">
<path d="M87.125 69.7559H53.6402C53.6402 69.7559 53.7325 93.4457 53.7917 108.625C51.4726 108.625 48.4917 108.625 46.1236 108.625C43.9144 108.625 42.125 106.834 42.125 104.625V25.625C42.125 23.4159 43.9159 21.625 46.125 21.625H83.125C85.3341 21.625 87.125 23.4159 87.125 25.625V69.7559ZM75.0038 58.824V36.4051C75.0038 34.196 73.2129 32.4051 71.0038 32.4051H57.7688C55.5686 32.4051 53.7815 34.182 53.7689 36.3822L53.6402 58.824H75.0038Z" fill="white"/>
<path d="M75.125 108.625H83.125C85.3341 108.625 87.125 106.834 87.125 104.625V71H75.125V108.625Z" fill="white"/>
<circle cx="64.5" cy="64.5" r="62" stroke="white" stroke-width="5"/>
</svg>
